<?xml version="1.0" encoding="UTF-8"?>
<!DOCTYPE svg PUBLIC "-//W3C//DTD SVG 1.1//EN" "http://www.w3.org/Graphics/SVG/1.1/DTD/svg11.dtd">
<!-- Creator: CorelDRAW 2019 (64-Bit) -->
<svg xmlns="http://www.w3.org/2000/svg" xml:space="preserve" width="1561px" height="339px" version="1.1" style="shape-rendering:geometricPrecision; text-rendering:geometricPrecision; image-rendering:optimizeQuality; fill-rule:evenodd; clip-rule:evenodd"
viewBox="0 0 1027.85 223.14"
 xmlns:xlink="http://www.w3.org/1999/xlink">
 <defs>
  <style type="text/css">
   <![CDATA[
    .str0 {stroke:#2B2A29;stroke-width:0.59;stroke-miterlimit:22.9256}
    .fil0 {fill:none}
    .fil2 {fill:none;fill-rule:nonzero}
    .fil3 {fill:#262523}
    .fil4 {fill:#DB2127}
    .fil5 {fill:#F7D918}
    .fil1 {fill:#2B2A29;fill-rule:nonzero}
   ]]>
  </style>
 </defs>
 <g id="Слой_x0020_1">
  <metadata id="CorelCorpID_0Corel-Layer"/>
  <rect class="fil0" y="0.33" width="1027.85" height="221.17"/>
  <polygon class="fil1" points="467.14,27.94 467.14,0.45 471.24,0.45 485.66,17.28 500.14,0.45 504.17,0.45 504.17,27.94 499.81,27.94 499.81,6.48 485.66,22.74 471.5,6.48 471.5,27.94 "/>
  <path id="1" class="fil1" d="M575.17 17.33l15.69 0 -7.88 -12.17 -7.81 12.17zm-11.5 10.61l17.47 -27.49 3.68 0 17.67 27.49 -4.82 0 -4.84 -7.39 -19.69 0 -4.72 7.39 -4.75 0z"/>
  <path id="2" class="fil1" d="M677.61 3.61l-10.86 0 0 21.17 10.86 0c4.38,0 7.84,-0.95 10.35,-2.85 2.53,-1.9 3.79,-4.47 3.79,-7.71 0,-3.19 -1.28,-5.75 -3.85,-7.69 -2.56,-1.95 -6,-2.92 -10.29,-2.92zm0 -3.16c5.6,0 10.12,1.27 13.55,3.83 3.43,2.56 5.15,5.89 5.15,9.99 0,4.13 -1.69,7.45 -5.06,9.94 -3.38,2.49 -7.92,3.73 -13.64,3.73l-15.29 0 0 -27.49 15.29 0z"/>
  <polygon id="3" class="fil1" points="758.52,27.94 758.52,0.45 786.56,0.45 786.56,3.61 762.95,3.61 762.95,11.67 777.23,11.67 777.23,14.83 762.95,14.83 762.95,24.78 788.01,24.78 788.01,27.94 "/>
  <polygon id="4" class="fil1" points="893.14,27.94 893.14,0.3 897.64,0.3 897.64,27.94 "/>
  <polygon id="5" class="fil1" points="962.77,27.94 962.77,0.45 965.09,0.45 988.23,21 988.23,0.45 992.66,0.45 992.66,27.94 990.4,27.94 967.2,7.39 967.2,27.94 "/>
  <polygon id="6" class="fil2 str0" points="467.14,27.94 467.14,0.45 471.24,0.45 485.66,17.28 500.14,0.45 504.17,0.45 504.17,27.94 499.81,27.94 499.81,6.48 485.66,22.74 471.5,6.48 471.5,27.94 "/>
  <path id="7" class="fil2 str0" d="M575.17 17.33l15.69 0 -7.88 -12.17 -7.81 12.17zm-11.5 10.61l17.47 -27.49 3.68 0 17.67 27.49 -4.82 0 -4.84 -7.39 -19.69 0 -4.72 7.39 -4.75 0z"/>
  <path id="8" class="fil2 str0" d="M677.61 3.61l-10.86 0 0 21.17 10.86 0c4.38,0 7.84,-0.95 10.35,-2.85 2.53,-1.9 3.79,-4.47 3.79,-7.71 0,-3.19 -1.28,-5.75 -3.85,-7.69 -2.56,-1.95 -6,-2.92 -10.29,-2.92zm0 -3.16c5.6,0 10.12,1.27 13.55,3.83 3.43,2.56 5.15,5.89 5.15,9.99 0,4.13 -1.69,7.45 -5.06,9.94 -3.38,2.49 -7.92,3.73 -13.64,3.73l-15.29 0 0 -27.49 15.29 0z"/>
  <polygon id="9" class="fil2 str0" points="758.52,27.94 758.52,0.45 786.56,0.45 786.56,3.61 762.95,3.61 762.95,11.67 777.23,11.67 777.23,14.83 762.95,14.83 762.95,24.78 788.01,24.78 788.01,27.94 "/>
  <polygon id="10" class="fil2 str0" points="893.14,27.94 893.14,0.3 897.64,0.3 897.64,27.94 "/>
  <polygon id="11" class="fil2 str0" points="962.77,27.94 962.77,0.45 965.09,0.45 988.23,21 988.23,0.45 992.66,0.45 992.66,27.94 990.4,27.94 967.2,7.39 967.2,27.94 "/>
 </g>
 <g id="Слой_x0020_1_0">
  <metadata id="CorelCorpID_1Corel-Layer"/>
  <path class="fil1" d="M495.99 143.98l28.15 0 0 54.47c0,0.31 0,0.65 0,1.04 0,0.38 0,0.73 0,1.03 0,1.08 0,2.12 0,3.12 0,1 0,2.04 0,3.12 -0.31,4.15 -1.73,7.92 -4.27,11.3 -2.54,3.39 -7.96,5.08 -16.27,5.08l-15.92 0c-0.77,0 -1.5,0 -2.19,0 -0.7,0 -1.43,-0.07 -2.2,-0.23 -4,-0.31 -7.69,-2 -11.07,-5.08 -3.39,-3.07 -5.08,-9.54 -5.08,-19.38l0 -111.01c0,-0.16 0,-0.39 0,-0.69 0,-0.31 0,-0.54 0,-0.7 0,-1.38 0.04,-3 0.12,-4.84 0.07,-1.85 0.26,-3.7 0.57,-5.54 0.93,-3.54 2.77,-6.77 5.54,-9.69 2.77,-2.93 7.46,-4.39 14.08,-4.39l13.84 0c7.85,0 13.27,1.54 16.27,4.62 3,3.07 4.81,6.46 5.43,10.15 0.3,1.54 0.46,3.08 0.46,4.62 0,1.53 0,3 0,4.38 0,0.31 0,0.62 0,0.92 0,0.31 0,0.62 0,0.93l0 26.08 -22.85 0 0 -32.31c0,-0.31 -0.04,-0.58 -0.11,-0.81 -0.08,-0.23 -0.12,-0.5 -0.12,-0.81 -0.31,-0.77 -0.88,-1.46 -1.73,-2.08 -0.85,-0.61 -1.96,-0.92 -3.35,-0.92 -1.53,0 -2.8,0.46 -3.8,1.38 -1,0.93 -1.5,2.01 -1.5,3.24l0 121.62c0,1.85 0.53,3.23 1.61,4.16 1.08,0.92 2.23,1.46 3.46,1.61 0.16,0 0.27,0 0.35,0 0.08,0 0.19,0 0.35,0 1.38,0 2.65,-0.5 3.8,-1.5 1.16,-1 1.73,-2.42 1.73,-4.27l0 -43.16 -5.3 0 0 -15.46z"/>
  <polygon id="1" class="fil1" points="535.61,223.14 535.61,61.59 589.15,61.59 589.15,77.05 558.45,77.05 558.45,130.13 589.15,130.13 589.15,145.6 558.45,145.6 558.45,207.68 589.61,207.68 589.61,223.14 "/>
  <path id="2" class="fil1" d="M599.69 223.14l0 -161.55 36 0c0.15,0 0.27,0 0.35,0 0.07,0 0.11,0 0.11,0 0.92,0 1.81,0 2.65,0 0.85,0 1.73,0.08 2.66,0.23 3.69,0.31 7.04,1.89 10.04,4.73 3,2.85 4.5,8.89 4.5,18.12l0 53.54c0,0.16 0,0.35 0,0.58 0,0.23 0,0.42 0,0.58 0,1.23 -0.04,2.57 -0.12,4.04 -0.08,1.46 -0.19,2.88 -0.34,4.26 -0.62,2.47 -1.66,4.81 -3.12,7.04 -1.46,2.23 -3.81,4.04 -7.04,5.43l15.23 63 -24.46 0 -12 -59.54 -1.62 0 0 59.54 -22.84 0zm22.84 -74.31l3.24 0c2.15,0 3.92,-0.85 5.3,-2.54 1.39,-1.69 2.08,-4.23 2.08,-7.62l0 -53.31c0,-2.61 -0.5,-4.5 -1.5,-5.65 -1,-1.16 -2.04,-1.97 -3.11,-2.43 -0.47,0 -0.89,-0.03 -1.27,-0.11 -0.39,-0.08 -0.73,-0.12 -1.04,-0.12l-3.7 0 0 71.78z"/>
  <polygon id="3" class="fil1" points="669.54,61.59 703.23,61.59 719.62,188.75 737.85,61.59 771.54,61.59 771.54,223.14 748.69,223.14 748.69,98.75 731.85,223.14 709.23,223.14 692.39,98.75 692.39,223.14 669.54,223.14 "/>
  <path id="4" class="fil1" d="M781.62 223.14l17.08 -161.55 34.38 0 16.16 161.55 -22.62 0 -3.69 -44.31 -15.69 0 -3.46 44.31 -22.16 0zm26.54 -59.77l13.62 0 -6 -82.39 -1.16 0 -6.46 82.39z"/>
  <polygon id="5" class="fil1" points="859.32,223.14 859.32,61.59 882.17,61.59 896.47,153.21 896.47,61.59 919.32,61.59 919.32,223.14 896.47,223.14 882.17,139.37 882.17,223.14 "/>
  <polygon id="6" class="fil1" points="949.71,223.14 949.71,180.68 928.25,61.59 953.86,61.59 961.25,129.21 968.63,61.59 994.02,61.59 972.56,180.68 972.56,223.14 "/>
  <g id="_2451596170752">
   <polygon class="fil3" points="31.6,75.04 424.25,75.04 424.25,0.98 31.6,0.98 "/>
   <polygon class="fil4" points="31.6,149.09 424.25,149.09 424.25,75.04 31.6,75.04 "/>
   <polygon class="fil5" points="31.6,223.14 424.25,223.14 424.25,149.09 31.6,149.09 "/>
  </g>
 </g>
</svg>
