<?xml version="1.0" standalone="no"?>
<!DOCTYPE svg PUBLIC "-//W3C//DTD SVG 20010904//EN"
 "http://www.w3.org/TR/2001/REC-SVG-20010904/DTD/svg10.dtd">
<svg version="1.0" xmlns="http://www.w3.org/2000/svg"
 width="180.000000pt" height="180.000000pt" viewBox="0 0 180.000000 180.000000"
 preserveAspectRatio="xMidYMid meet">
<metadata>
Created by potrace 1.11, written by Peter Selinger 2001-2013
</metadata>
<g transform="translate(0.000000,180.000000) scale(0.100000,-0.100000)"
fill="#000000" stroke="none">
<path d="M40 1758 c0 -4 45 -132 100 -285 63 -174 97 -280 91 -286 -6 -6 -26
-6 -54 1 -59 15 -99 0 -125 -47 -18 -33 -20 -55 -18 -291 l1 -255 34 -3 c18
-2 38 1 44 7 7 7 11 98 12 248 1 131 3 241 3 246 1 4 9 7 17 7 19 0 16 28 18
-258 2 -190 5 -245 15 -251 11 -6 -2 -63 -62 -274 -42 -147 -76 -269 -76 -272
0 -3 161 -4 357 -3 l357 3 48 190 c26 105 58 241 71 303 13 62 26 109 30 105
4 -3 7 -15 7 -25 0 -10 4 -26 9 -36 5 -9 30 -82 56 -162 25 -80 67 -197 93
-260 l47 -115 343 -3 c188 -1 342 0 342 3 0 2 -50 124 -110 270 -85 204 -110
275 -110 310 0 39 -3 47 -25 55 -31 12 -32 28 -2 32 19 3 22 9 22 43 0 40 0
40 -40 43 -60 4 -68 24 -71 170 l-3 122 79 0 80 0 2 -247 3 -248 45 0 45 0 2
230 c1 127 2 238 2 247 1 11 11 18 34 20 28 3 32 7 35 37 2 18 0 37 -5 42 -5
5 -77 10 -160 10 -109 1 -150 4 -148 13 2 6 34 97 71 201 109 313 124 358 119
364 -6 5 -604 6 -609 0 -2 -2 -33 -96 -70 -209 -37 -113 -72 -215 -78 -227 -9
-19 -22 11 -86 205 -41 125 -76 229 -78 231 -6 7 -704 6 -704 -1z m244 -680
c15 -58 -5 -242 -29 -266 -7 -7 -6 253 1 272 9 23 21 20 28 -6z"/>
</g>
</svg>
