<?xml version="1.0" encoding="UTF-8"?>
<!DOCTYPE svg PUBLIC "-//W3C//DTD SVG 1.1//EN" "http://www.w3.org/Graphics/SVG/1.1/DTD/svg11.dtd">
<!-- Creator: CorelDRAW 2019 (64-Bit) -->
<svg xmlns="http://www.w3.org/2000/svg" xml:space="preserve" width="1561px" height="402px" version="1.1" style="shape-rendering:geometricPrecision; text-rendering:geometricPrecision; image-rendering:optimizeQuality; fill-rule:evenodd; clip-rule:evenodd"
viewBox="0 0 1027.85 264.91"
 xmlns:xlink="http://www.w3.org/1999/xlink">
 <defs>
  <style type="text/css">
   <![CDATA[
    .str0 {stroke:#2B2A29;stroke-width:0.59;stroke-miterlimit:22.9256}
    .fil0 {fill:none}
    .fil2 {fill:none;fill-rule:nonzero}
    .fil8 {fill:#FEFEFE}
    .fil6 {fill:#000066}
    .fil3 {fill:#21468B}
    .fil5 {fill:#AE1C28}
    .fil7 {fill:#CC0000}
    .fil4 {fill:white}
    .fil1 {fill:#2B2A29;fill-rule:nonzero}
   ]]>
  </style>
 </defs>
 <g id="Слой_x0020_1">
  <metadata id="CorelCorpID_0Corel-Layer"/>
  <rect class="fil0" y="0.33" width="1027.85" height="221.17"/>
  <polygon class="fil1" points="467.14,27.94 467.14,0.45 471.24,0.45 485.66,17.28 500.14,0.45 504.17,0.45 504.17,27.94 499.81,27.94 499.81,6.48 485.66,22.74 471.5,6.48 471.5,27.94 "/>
  <path id="1" class="fil1" d="M575.17 17.33l15.69 0 -7.88 -12.17 -7.81 12.17zm-11.5 10.61l17.47 -27.49 3.68 0 17.67 27.49 -4.82 0 -4.84 -7.39 -19.69 0 -4.72 7.39 -4.75 0z"/>
  <path id="2" class="fil1" d="M677.61 3.61l-10.86 0 0 21.17 10.86 0c4.38,0 7.84,-0.95 10.35,-2.85 2.53,-1.9 3.79,-4.47 3.79,-7.71 0,-3.19 -1.28,-5.75 -3.85,-7.69 -2.56,-1.95 -6,-2.92 -10.29,-2.92zm0 -3.16c5.6,0 10.12,1.27 13.55,3.83 3.43,2.56 5.15,5.89 5.15,9.99 0,4.13 -1.69,7.45 -5.06,9.94 -3.38,2.49 -7.92,3.73 -13.64,3.73l-15.29 0 0 -27.49 15.29 0z"/>
  <polygon id="3" class="fil1" points="758.52,27.94 758.52,0.45 786.56,0.45 786.56,3.61 762.95,3.61 762.95,11.67 777.23,11.67 777.23,14.83 762.95,14.83 762.95,24.78 788.01,24.78 788.01,27.94 "/>
  <polygon id="4" class="fil1" points="893.14,27.94 893.14,0.3 897.64,0.3 897.64,27.94 "/>
  <polygon id="5" class="fil1" points="962.77,27.94 962.77,0.45 965.09,0.45 988.23,21 988.23,0.45 992.66,0.45 992.66,27.94 990.4,27.94 967.2,7.39 967.2,27.94 "/>
  <polygon id="6" class="fil2 str0" points="467.14,27.94 467.14,0.45 471.24,0.45 485.66,17.28 500.14,0.45 504.17,0.45 504.17,27.94 499.81,27.94 499.81,6.48 485.66,22.74 471.5,6.48 471.5,27.94 "/>
  <path id="7" class="fil2 str0" d="M575.17 17.33l15.69 0 -7.88 -12.17 -7.81 12.17zm-11.5 10.61l17.47 -27.49 3.68 0 17.67 27.49 -4.82 0 -4.84 -7.39 -19.69 0 -4.72 7.39 -4.75 0z"/>
  <path id="8" class="fil2 str0" d="M677.61 3.61l-10.86 0 0 21.17 10.86 0c4.38,0 7.84,-0.95 10.35,-2.85 2.53,-1.9 3.79,-4.47 3.79,-7.71 0,-3.19 -1.28,-5.75 -3.85,-7.69 -2.56,-1.95 -6,-2.92 -10.29,-2.92zm0 -3.16c5.6,0 10.12,1.27 13.55,3.83 3.43,2.56 5.15,5.89 5.15,9.99 0,4.13 -1.69,7.45 -5.06,9.94 -3.38,2.49 -7.92,3.73 -13.64,3.73l-15.29 0 0 -27.49 15.29 0z"/>
  <polygon id="9" class="fil2 str0" points="758.52,27.94 758.52,0.45 786.56,0.45 786.56,3.61 762.95,3.61 762.95,11.67 777.23,11.67 777.23,14.83 762.95,14.83 762.95,24.78 788.01,24.78 788.01,27.94 "/>
  <polygon id="10" class="fil2 str0" points="893.14,27.94 893.14,0.3 897.64,0.3 897.64,27.94 "/>
  <polygon id="11" class="fil2 str0" points="962.77,27.94 962.77,0.45 965.09,0.45 988.23,21 988.23,0.45 992.66,0.45 992.66,27.94 990.4,27.94 967.2,7.39 967.2,27.94 "/>
 </g>
 <g id="Слой_x0020_1_0">
  <metadata id="CorelCorpID_1Corel-Layer"/>
  <path class="fil1" d="M467.14 61.59l15.85 0 0 141.7c0,1.24 0.26,2.23 0.8,3 0.53,0.77 1.06,1.31 1.6,1.62 0.21,0.15 0.43,0.27 0.64,0.35 0.21,0.07 0.43,0.11 0.64,0.11 0.21,0 0.43,-0.04 0.64,-0.11 0.21,-0.08 0.48,-0.2 0.8,-0.35 0.53,-0.46 1.07,-1.08 1.6,-1.85 0.53,-0.77 0.8,-1.69 0.8,-2.77l0 -141.7 15.85 0 0 136.63c0,0.15 0,0.27 0,0.34 0,0.08 0,0.2 0,0.35 0,1.38 -0.03,2.92 -0.08,4.62 -0.05,1.69 -0.19,3.38 -0.4,5.07 -0.53,3.69 -1.76,7.04 -3.68,10.04 -1.92,3 -5.28,4.5 -10.09,4.5l-10.72 0c-0.54,0 -1.1,0 -1.68,0 -0.59,0 -1.2,-0.07 -1.84,-0.23 -2.67,-0.31 -5.13,-1.92 -7.37,-4.85 -2.24,-2.92 -3.36,-9.46 -3.36,-19.61l0 -136.86z"/>
  <path id="1" class="fil1" d="M514.21 223.14l0 -129.24 13.44 0 0 5.31c0.22,-0.16 0.65,-0.58 1.29,-1.27 0.64,-0.69 1.38,-1.35 2.24,-1.96 1.17,-0.93 2.48,-1.73 3.92,-2.43 1.44,-0.69 2.96,-1.03 4.56,-1.03 2.78,0 4.7,1.15 5.76,3.46 1.07,2.31 1.71,4.77 1.93,7.38 0.1,1.08 0.15,2.12 0.15,3.12 0,1 0,1.96 0,2.88l0 113.78 -13.44 0 0 -109.85c0,-1.08 -0.16,-1.93 -0.48,-2.54 -0.32,-0.62 -0.64,-1.08 -0.96,-1.39 -0.32,-0.3 -0.62,-0.5 -0.88,-0.57 -0.27,-0.08 -0.46,-0.12 -0.56,-0.12 -0.22,0 -0.4,0.04 -0.56,0.12 -0.16,0.07 -0.35,0.19 -0.56,0.34 -0.43,0.31 -0.86,0.73 -1.28,1.27 -0.43,0.54 -0.75,1.19 -0.96,1.96 -0.11,0.16 -0.17,0.31 -0.17,0.47 0,0.15 0,0.3 0,0.46l0 109.85 -13.44 0z"/>
  <path id="2" class="fil1" d="M554.39 223.14l0 -129.24 13.45 0 0 129.24 -13.45 0zm0 -142.16l0 -19.39 13.45 0 0 19.39 -13.45 0z"/>
  <path id="3" class="fil1" d="M571.04 107.75l0 -13.85 7.21 0 0 -32.31 13.45 0 0 32.31 9.76 0 0 13.85 -9.76 0 0 93.01c0,0.46 0,0.96 0,1.5 0,0.53 0.05,1.03 0.16,1.5 0.21,1.38 0.66,2.65 1.36,3.8 0.69,1.16 1.84,1.73 3.44,1.73l4.8 0 0 13.85 -8.8 0c-0.75,0 -1.55,-0.04 -2.41,-0.11 -0.85,-0.08 -1.7,-0.2 -2.56,-0.35 -2.34,-0.62 -4.51,-2.19 -6.48,-4.73 -1.97,-2.54 -2.96,-7.35 -2.96,-14.42l0 -95.78 -7.21 0z"/>
  <path id="4" class="fil1" d="M624.52 177.91l13.44 0 0 26.08c0,6 -0.74,10.31 -2.24,12.92 -1.49,2.62 -3.15,4.39 -4.96,5.31 -1.07,0.46 -2.11,0.73 -3.12,0.81 -1.02,0.07 -1.84,0.11 -2.48,0.11l-8.33 0c-0.64,0 -1.41,-0.04 -2.32,-0.11 -0.91,-0.08 -1.84,-0.35 -2.8,-0.81 -1.81,-0.77 -3.44,-2.46 -4.88,-5.08 -1.44,-2.61 -2.16,-6.92 -2.16,-12.92l0 -91.16c0,-0.77 0.05,-2 0.16,-3.7 0.1,-1.69 0.42,-3.54 0.96,-5.54 0.64,-2.46 1.78,-4.73 3.44,-6.8 1.65,-2.08 4.19,-3.12 7.6,-3.12l8.33 0c3.84,0 6.93,1.69 9.28,5.08 2.35,3.38 3.52,8 3.52,13.85l0 52.15 -19.85 0 0 40.39c0,0.15 0,0.35 0,0.58 0,0.23 0.06,0.42 0.16,0.58 0.22,0.76 0.54,1.42 0.96,1.96 0.43,0.54 1.02,0.8 1.76,0.8 0.11,0 0.22,0 0.32,0 0.11,0 0.22,0 0.32,0 0.75,-0.15 1.42,-0.57 2.01,-1.26 0.58,-0.7 0.88,-1.58 0.88,-2.66l0 -27.46zm-6.41 -25.85l6.41 0 0 -40.39c0,-1.08 -0.3,-1.96 -0.88,-2.65 -0.59,-0.7 -1.26,-1.12 -2.01,-1.27 -0.1,0 -0.21,0 -0.32,0 -0.1,0 -0.21,0 -0.32,0 -0.74,0 -1.33,0.27 -1.76,0.81 -0.42,0.53 -0.74,1.19 -0.96,1.96 -0.1,0.15 -0.16,0.34 -0.16,0.57 0,0.23 0,0.43 0,0.58l0 40.39z"/>
  <path id="5" class="fil1" d="M678.15 61.59l0 161.55 -13.45 0 0 -5.31c-0.64,1.08 -1.33,2 -2.08,2.77 -0.75,0.77 -1.5,1.39 -2.24,1.85 -1.07,0.62 -2.08,1.08 -3.04,1.38 -0.96,0.31 -1.76,0.47 -2.4,0.47 -3.21,0 -5.5,-1.2 -6.89,-3.58 -1.39,-2.39 -2.29,-4.96 -2.72,-7.73 -0.21,-1.39 -0.35,-2.73 -0.4,-4.04 -0.05,-1.31 -0.08,-2.5 -0.08,-3.58l0 -94.39c0,-1.08 0.03,-2.27 0.08,-3.58 0.05,-1.31 0.13,-2.58 0.24,-3.81 0.32,-2.77 1.15,-5.3 2.48,-7.61 1.34,-2.31 3.6,-3.46 6.81,-3.46 1.7,0 3.22,0.38 4.56,1.15 1.33,0.77 2.43,1.62 3.28,2.54 0.53,0.46 1.01,0.96 1.44,1.5 0.43,0.54 0.75,0.96 0.96,1.27l0 -37.39 13.45 0zm-19.85 51.47l0 90.93c0,0.92 0.26,1.77 0.8,2.54 0.53,0.76 1.07,1.3 1.6,1.61 0.21,0 0.4,0.04 0.56,0.12 0.16,0.07 0.35,0.11 0.56,0.11 0.11,0 0.29,-0.04 0.56,-0.11 0.27,-0.08 0.56,-0.2 0.88,-0.35 0.32,-0.31 0.64,-0.77 0.96,-1.38 0.32,-0.62 0.48,-1.47 0.48,-2.54l0 -90.93c0,-0.16 -0.03,-0.43 -0.08,-0.81 -0.05,-0.39 -0.13,-0.81 -0.24,-1.27 -0.11,-0.62 -0.37,-1.15 -0.8,-1.62 -0.43,-0.46 -1.07,-0.69 -1.92,-0.69 -0.85,0 -1.6,0.39 -2.24,1.16 -0.64,0.76 -1.02,1.69 -1.12,2.76 0,0 0,0.04 0,0.12 0,0.08 0,0.19 0,0.35z"/>
  <polygon id="6" class="fil1" points="713.37,223.14 713.37,61.59 729.22,61.59 729.22,131.06 737.22,61.59 752.91,61.59 743.14,137.98 754.51,223.14 739.3,223.14 729.22,146.29 729.22,223.14 "/>
  <path id="7" class="fil1" d="M759.48 223.14l0 -129.24 13.44 0 0 129.24 -13.44 0zm0 -142.16l0 -19.39 13.44 0 0 19.39 -13.44 0z"/>
  <path id="8" class="fil1" d="M779.81 223.14l0 -129.24 13.45 0 0 5.31c0.21,-0.16 0.64,-0.58 1.28,-1.27 0.64,-0.69 1.39,-1.35 2.24,-1.96 1.17,-0.93 2.48,-1.73 3.92,-2.43 1.44,-0.69 2.96,-1.03 4.56,-1.03 2.78,0 4.7,1.15 5.77,3.46 1.06,2.31 1.7,4.77 1.92,7.38 0.1,1.08 0.16,2.12 0.16,3.12 0,1 0,1.96 0,2.88l0 113.78 -13.45 0 0 -109.85c0,-1.08 -0.16,-1.93 -0.48,-2.54 -0.32,-0.62 -0.64,-1.08 -0.96,-1.39 -0.32,-0.3 -0.61,-0.5 -0.88,-0.57 -0.27,-0.08 -0.45,-0.12 -0.56,-0.12 -0.21,0 -0.4,0.04 -0.56,0.12 -0.16,0.07 -0.35,0.19 -0.56,0.34 -0.43,0.31 -0.85,0.73 -1.28,1.27 -0.43,0.54 -0.75,1.19 -0.96,1.96 -0.11,0.16 -0.16,0.31 -0.16,0.47 0,0.15 0,0.3 0,0.46l0 109.85 -13.45 0z"/>
  <path id="9" class="fil1" d="M853.29 93.9l0 147.47c0,-0.15 0,-0.19 0,-0.11 0,0.08 0,0.19 0,0.34 0,1.08 -0.02,2.62 -0.08,4.62 -0.05,2 -0.29,4 -0.72,6 -0.53,3.23 -1.68,6.16 -3.44,8.77 -1.76,2.62 -4.56,3.92 -8.4,3.92l-8.01 0c-3.84,-0.15 -6.64,-1.34 -8.4,-3.61 -1.76,-2.27 -2.91,-4.77 -3.44,-7.46 -0.32,-1.7 -0.54,-3.31 -0.64,-4.85 -0.11,-1.54 -0.16,-2.85 -0.16,-3.92l0 -5.77 13.44 0 0 10.38c0,0 0,0.04 0,0.12 0,0.08 0,0.11 0,0.11 0.11,0.93 0.48,1.73 1.12,2.43 0.64,0.69 1.44,1.04 2.4,1.04 0.96,0 1.63,-0.24 2,-0.7 0.38,-0.46 0.62,-1 0.73,-1.61 0.1,-0.31 0.16,-0.62 0.16,-0.93 0,-0.3 0,-0.53 0,-0.69l0 -31.62c-0.11,0.16 -0.19,0.27 -0.24,0.35 -0.06,0.08 -0.14,0.19 -0.24,0.35 -1.07,1.53 -2.49,2.88 -4.25,4.03 -1.76,1.16 -3.87,1.74 -6.32,1.74 -2.77,0 -4.78,-1.16 -6,-3.47 -1.23,-2.3 -2,-4.84 -2.32,-7.61 -0.22,-1.39 -0.35,-2.69 -0.4,-3.93 -0.06,-1.23 -0.08,-2.38 -0.08,-3.46l0 -94.62c0,-1.08 0.02,-2.23 0.08,-3.46 0.05,-1.23 0.13,-2.46 0.24,-3.7 0.32,-2.92 1.12,-5.57 2.4,-7.96 1.28,-2.38 3.57,-3.57 6.88,-3.57 2.14,0 4.08,0.69 5.84,2.07 1.76,1.39 3.23,3 4.41,4.85l0 -5.54 13.44 0zm-19.85 19.16l0 90.93c0,1.07 0.22,1.92 0.64,2.54 0.43,0.61 0.86,1.07 1.28,1.38 0.32,0.15 0.59,0.27 0.8,0.35 0.22,0.07 0.43,0.11 0.64,0.11 0.22,0 0.4,0 0.56,0 0.16,0 0.35,-0.08 0.56,-0.23 0.54,-0.15 0.99,-0.58 1.37,-1.27 0.37,-0.69 0.56,-1.65 0.56,-2.88l0 -90.93c0,-1.23 -0.19,-2.2 -0.56,-2.89 -0.38,-0.69 -0.83,-1.11 -1.37,-1.27 -0.21,-0.15 -0.4,-0.23 -0.56,-0.23 -0.16,0 -0.34,0 -0.56,0 -0.21,0 -0.42,0.04 -0.64,0.12 -0.21,0.07 -0.48,0.19 -0.8,0.34 -0.42,0.31 -0.85,0.77 -1.28,1.39 -0.42,0.61 -0.64,1.46 -0.64,2.54z"/>
  <path id="10" class="fil1" d="M893.48 61.59l0 161.55 -13.45 0 0 -5.31c-0.64,1.08 -1.33,2 -2.08,2.77 -0.75,0.77 -1.5,1.39 -2.24,1.85 -1.07,0.62 -2.08,1.08 -3.04,1.38 -0.96,0.31 -1.76,0.47 -2.4,0.47 -3.21,0 -5.5,-1.2 -6.89,-3.58 -1.39,-2.39 -2.29,-4.96 -2.72,-7.73 -0.21,-1.39 -0.35,-2.73 -0.4,-4.04 -0.05,-1.31 -0.08,-2.5 -0.08,-3.58l0 -94.39c0,-1.08 0.03,-2.27 0.08,-3.58 0.05,-1.31 0.13,-2.58 0.24,-3.81 0.32,-2.77 1.15,-5.3 2.48,-7.61 1.34,-2.31 3.6,-3.46 6.8,-3.46 1.71,0 3.23,0.38 4.57,1.15 1.33,0.77 2.42,1.62 3.28,2.54 0.53,0.46 1.01,0.96 1.44,1.5 0.43,0.54 0.75,0.96 0.96,1.27l0 -37.39 13.45 0zm-19.85 51.47l0 90.93c0,0.92 0.26,1.77 0.8,2.54 0.53,0.76 1.06,1.3 1.6,1.61 0.21,0 0.4,0.04 0.56,0.12 0.16,0.07 0.34,0.11 0.56,0.11 0.11,0 0.29,-0.04 0.56,-0.11 0.27,-0.08 0.56,-0.2 0.88,-0.35 0.32,-0.31 0.64,-0.77 0.96,-1.38 0.32,-0.62 0.48,-1.47 0.48,-2.54l0 -90.93c0,-0.16 -0.03,-0.43 -0.08,-0.81 -0.05,-0.39 -0.13,-0.81 -0.24,-1.27 -0.11,-0.62 -0.37,-1.15 -0.8,-1.62 -0.43,-0.46 -1.07,-0.69 -1.92,-0.69 -0.85,0 -1.6,0.39 -2.24,1.16 -0.64,0.76 -1.02,1.69 -1.12,2.76 0,0 0,0.04 0,0.12 0,0.08 0,0.19 0,0.35z"/>
  <path id="11" class="fil1" d="M921.02 223.14l-8.17 0c-4.27,0 -7.26,-1.27 -8.96,-3.81 -1.71,-2.53 -2.78,-5.27 -3.21,-8.19 -0.1,-1.38 -0.18,-2.73 -0.24,-4.04 -0.05,-1.31 -0.08,-2.5 -0.08,-3.57 0,0 0,-0.04 0,-0.12 0,-0.08 0,-0.12 0,-0.12l0 -88.16c0,0 0,0 0,0 0,0 0,-0.07 0,-0.23 0,-0.77 0.06,-2.11 0.16,-4.04 0.11,-1.92 0.43,-3.96 0.97,-6.11 0.64,-2.62 1.81,-5.08 3.52,-7.39 1.7,-2.31 4.27,-3.46 7.68,-3.46l8.49 0c3.52,0 6.13,1.15 7.84,3.46 1.71,2.31 2.88,4.85 3.52,7.62 0.54,2.15 0.86,4.15 0.96,6 0.11,1.85 0.16,3.23 0.16,4.15l0 88.16c0,1.08 -0.02,2.31 -0.08,3.7 -0.05,1.38 -0.18,2.77 -0.4,4.15 -0.43,2.92 -1.49,5.66 -3.2,8.19 -1.71,2.54 -4.7,3.81 -8.96,3.81zm-7.21 -111.01l0 92.78c0,1.23 0.27,2.19 0.8,2.88 0.54,0.7 1.12,1.2 1.76,1.5 0.11,0 0.22,0 0.32,0 0.11,0 0.22,0 0.32,0 0.11,0 0.32,-0.03 0.64,-0.11 0.32,-0.08 0.64,-0.19 0.96,-0.35 0.32,-0.3 0.67,-0.77 1.04,-1.38 0.38,-0.62 0.56,-1.46 0.56,-2.54l0 -92.78c0,-1.07 -0.18,-1.92 -0.56,-2.54 -0.37,-0.61 -0.72,-1.07 -1.04,-1.38 -0.32,-0.15 -0.64,-0.27 -0.96,-0.35 -0.32,-0.07 -0.53,-0.11 -0.64,-0.11 -0.1,0 -0.21,0 -0.32,0 -0.1,0 -0.21,0 -0.32,0 -0.64,0.31 -1.22,0.81 -1.76,1.5 -0.53,0.69 -0.8,1.65 -0.8,2.88z"/>
  <path id="12" class="fil1" d="M940.55 223.14l0 -129.24 13.45 0 0 6.46c0.64,-0.92 1.3,-1.77 2,-2.54 0.69,-0.77 1.41,-1.46 2.16,-2.07 1.39,-1.08 2.69,-1.89 3.92,-2.43 1.23,-0.53 2.27,-0.8 3.12,-0.8 2.03,0 3.74,0.65 5.12,1.96 1.39,1.31 2.46,3.19 3.21,5.65 2.45,-3.38 4.67,-5.5 6.64,-6.34 1.97,-0.85 3.81,-1.27 5.52,-1.27 2.78,0 4.86,1.15 6.25,3.46 1.38,2.31 2.08,7.54 2.08,15.69l0 111.47 -13.45 0 0 -109.85c0,-1.23 -0.32,-2.31 -0.96,-3.23 -0.64,-0.93 -1.44,-1.39 -2.4,-1.39 -0.75,0 -1.47,0.39 -2.16,1.16 -0.7,0.76 -1.04,1.92 -1.04,3.46l0 109.85 -13.45 0 0 -110.31c0,-1.08 -0.24,-2.01 -0.72,-2.77 -0.48,-0.77 -1.04,-1.24 -1.68,-1.39 0,0 -0.03,0 -0.08,0 -0.06,0 -0.14,0 -0.24,0 -0.11,0 -0.22,0 -0.32,0 -0.11,0 -0.22,0 -0.32,0 -0.86,0.31 -1.6,0.85 -2.24,1.62 -0.64,0.77 -0.96,1.61 -0.96,2.54l0 110.31 -13.45 0z"/>
  <g id="_2451589901536">
   <rect class="fil3" x="31.6" y="0.3" width="392.65" height="222.85"/>
   <rect class="fil4" x="31.6" y="0.3" width="392.65" height="148.56"/>
   <rect class="fil5" x="31.6" y="0.3" width="392.65" height="74.28"/>
  </g>
  <g id="_2451589902816">
   <rect id="rect124" class="fil6" x="10.79" y="1.25" width="441.21" height="220.6"/>
   <path id="path146" class="fil4" d="M10.79 1.25l0 24.67 391.88 195.94 49.32 0 0 -24.67 -391.87 -195.94 -49.33 0 0 0zm441.2 0l0 24.66 -391.87 195.94 -49.33 0 0 -24.66 391.88 -195.94 49.32 0z"/>
   <path id="path136" class="fil4" d="M194.62 1.25l0 220.6 73.54 0 0 -220.6 -73.54 0zm-183.83 73.54l0 73.53 441.2 0 0 -73.53 -441.2 0z"/>
   <path id="path150" class="fil7" d="M10.79 221.85l147.07 -73.53 32.88 0 -147.07 73.53 -32.88 0zm0 -220.6l147.07 73.54 -32.89 0 -114.18 -57.1 0 -16.44zm261.25 73.54l147.07 -73.54 32.88 0 -147.06 73.54 -32.89 0zm179.95 147.06l-147.06 -73.53 32.88 0 114.18 57.09 0 16.44z"/>
   <path id="path141" class="fil7" d="M10.79 89.49l0 44.12 441.2 0 0 -44.12 -441.2 0zm198.54 -88.24l0 220.6 44.12 0 0 -220.6 -44.12 0z"/>
   <rect class="fil7" x="209.17" y="88.11" width="44.56" height="54.38"/>
  </g>
  <rect class="fil8" x="3.92" y="0.3" width="27.68" height="222.85"/>
  <rect class="fil8" x="424.25" y="0.33" width="30.8" height="222.81"/>
 </g>
</svg>
