<?xml version="1.0" encoding="UTF-8"?>
<!DOCTYPE svg PUBLIC "-//W3C//DTD SVG 1.1//EN" "http://www.w3.org/Graphics/SVG/1.1/DTD/svg11.dtd">
<!-- Creator: CorelDRAW 2019 (64-Bit) -->
<svg xmlns="http://www.w3.org/2000/svg" xml:space="preserve" width="1561px" height="339px" version="1.1" style="shape-rendering:geometricPrecision; text-rendering:geometricPrecision; image-rendering:optimizeQuality; fill-rule:evenodd; clip-rule:evenodd"
viewBox="0 0 1027.85 223.44"
 xmlns:xlink="http://www.w3.org/1999/xlink">
 <defs>
  <style type="text/css">
   <![CDATA[
    .str0 {stroke:#2B2A29;stroke-width:0.59;stroke-miterlimit:22.9256}
    .str1 {stroke:#2B2A29;stroke-width:0.59;stroke-miterlimit:22.9256}
    .fil0 {fill:none}
    .fil2 {fill:none;fill-rule:nonzero}
    .fil5 {fill:#0039A6}
    .fil4 {fill:#D52B1E}
    .fil3 {fill:white}
    .fil1 {fill:#2B2A29;fill-rule:nonzero}
   ]]>
  </style>
 </defs>
 <g id="Слой_x0020_1">
  <metadata id="CorelCorpID_0Corel-Layer"/>
  <rect class="fil0" y="0.33" width="1027.85" height="221.17"/>
  <polygon class="fil1" points="467.14,27.94 467.14,0.45 471.24,0.45 485.66,17.28 500.14,0.45 504.17,0.45 504.17,27.94 499.81,27.94 499.81,6.48 485.66,22.74 471.5,6.48 471.5,27.94 "/>
  <path id="1" class="fil1" d="M575.17 17.33l15.69 0 -7.88 -12.17 -7.81 12.17zm-11.5 10.61l17.47 -27.49 3.68 0 17.67 27.49 -4.82 0 -4.84 -7.39 -19.69 0 -4.72 7.39 -4.75 0z"/>
  <path id="2" class="fil1" d="M677.61 3.61l-10.86 0 0 21.17 10.86 0c4.38,0 7.84,-0.95 10.35,-2.85 2.53,-1.9 3.79,-4.47 3.79,-7.71 0,-3.19 -1.28,-5.75 -3.85,-7.69 -2.56,-1.95 -6,-2.92 -10.29,-2.92zm0 -3.16c5.6,0 10.12,1.27 13.55,3.83 3.43,2.56 5.15,5.89 5.15,9.99 0,4.13 -1.69,7.45 -5.06,9.94 -3.38,2.49 -7.92,3.73 -13.64,3.73l-15.29 0 0 -27.49 15.29 0z"/>
  <polygon id="3" class="fil1" points="758.52,27.94 758.52,0.45 786.56,0.45 786.56,3.61 762.95,3.61 762.95,11.67 777.23,11.67 777.23,14.83 762.95,14.83 762.95,24.78 788.01,24.78 788.01,27.94 "/>
  <polygon id="4" class="fil1" points="893.14,27.94 893.14,0.3 897.64,0.3 897.64,27.94 "/>
  <polygon id="5" class="fil1" points="962.77,27.94 962.77,0.45 965.09,0.45 988.23,21 988.23,0.45 992.66,0.45 992.66,27.94 990.4,27.94 967.2,7.39 967.2,27.94 "/>
  <polygon id="6" class="fil2 str0" points="467.14,27.94 467.14,0.45 471.24,0.45 485.66,17.28 500.14,0.45 504.17,0.45 504.17,27.94 499.81,27.94 499.81,6.48 485.66,22.74 471.5,6.48 471.5,27.94 "/>
  <path id="7" class="fil2 str0" d="M575.17 17.33l15.69 0 -7.88 -12.17 -7.81 12.17zm-11.5 10.61l17.47 -27.49 3.68 0 17.67 27.49 -4.82 0 -4.84 -7.39 -19.69 0 -4.72 7.39 -4.75 0z"/>
  <path id="8" class="fil2 str0" d="M677.61 3.61l-10.86 0 0 21.17 10.86 0c4.38,0 7.84,-0.95 10.35,-2.85 2.53,-1.9 3.79,-4.47 3.79,-7.71 0,-3.19 -1.28,-5.75 -3.85,-7.69 -2.56,-1.95 -6,-2.92 -10.29,-2.92zm0 -3.16c5.6,0 10.12,1.27 13.55,3.83 3.43,2.56 5.15,5.89 5.15,9.99 0,4.13 -1.69,7.45 -5.06,9.94 -3.38,2.49 -7.92,3.73 -13.64,3.73l-15.29 0 0 -27.49 15.29 0z"/>
  <polygon id="9" class="fil2 str0" points="758.52,27.94 758.52,0.45 786.56,0.45 786.56,3.61 762.95,3.61 762.95,11.67 777.23,11.67 777.23,14.83 762.95,14.83 762.95,24.78 788.01,24.78 788.01,27.94 "/>
  <polygon id="10" class="fil2 str0" points="893.14,27.94 893.14,0.3 897.64,0.3 897.64,27.94 "/>
  <polygon id="11" class="fil2 str0" points="962.77,27.94 962.77,0.45 965.09,0.45 988.23,21 988.23,0.45 992.66,0.45 992.66,27.94 990.4,27.94 967.2,7.39 967.2,27.94 "/>
 </g>
 <g id="Слой_x0020_1_0">
  <metadata id="CorelCorpID_1Corel-Layer"/>
  <path class="fil1" d="M467.72 223.14l0 -161.55 35.77 0c0.16,0 0.27,0 0.35,0 0.07,0 0.11,0 0.11,0 0.92,0 1.8,0 2.64,0 0.84,0 1.72,0.08 2.64,0.23 3.66,0.31 6.99,1.89 9.97,4.73 2.98,2.85 4.47,8.89 4.47,18.12l0 53.54c0,0.16 0,0.35 0,0.58 0,0.23 0,0.42 0,0.58 0,1.23 -0.04,2.57 -0.11,4.04 -0.08,1.46 -0.19,2.88 -0.35,4.26 -0.61,2.47 -1.64,4.81 -3.09,7.04 -1.45,2.23 -3.79,4.04 -7,5.43l15.14 63 -24.31 0 -11.92 -59.54 -1.61 0 0 59.54 -22.7 0zm22.7 -74.31l3.21 0c2.14,0 3.9,-0.85 5.28,-2.54 1.37,-1.69 2.06,-4.23 2.06,-7.62l0 -53.31c0,-2.61 -0.5,-4.5 -1.49,-5.65 -0.99,-1.16 -2.03,-1.97 -3.1,-2.43 -0.45,0 -0.87,-0.03 -1.26,-0.11 -0.38,-0.08 -0.72,-0.12 -1.03,-0.12l-3.67 0 0 71.78z"/>
  <path id="1" class="fil1" d="M567.36 61.59l22.7 0 0 141.7c0,1.24 0.38,2.23 1.15,3 0.76,0.77 1.53,1.31 2.29,1.62 0.31,0.15 0.61,0.27 0.92,0.35 0.3,0.07 0.61,0.11 0.92,0.11 0.3,0 0.61,-0.04 0.91,-0.11 0.31,-0.08 0.69,-0.2 1.15,-0.35 0.76,-0.46 1.53,-1.08 2.29,-1.85 0.77,-0.77 1.15,-1.69 1.15,-2.77l0 -141.7 22.7 0 0 136.63c0,0.15 0,0.27 0,0.34 0,0.08 0,0.2 0,0.35 0,1.38 -0.04,2.92 -0.11,4.62 -0.08,1.69 -0.27,3.38 -0.58,5.07 -0.76,3.69 -2.52,7.04 -5.27,10.04 -2.75,3 -7.57,4.5 -14.45,4.5l-15.36 0c-0.77,0 -1.57,0 -2.41,0 -0.84,0 -1.72,-0.07 -2.64,-0.23 -3.82,-0.31 -7.33,-1.92 -10.54,-4.85 -3.21,-2.92 -4.82,-9.46 -4.82,-19.61l0 -136.86z"/>
  <path id="2" class="fil1" d="M666.54 166.6l22.7 0 0 37.39c0,1.07 0.31,1.92 0.92,2.54 0.61,0.61 1.3,1.07 2.06,1.38 0.46,0.15 0.88,0.27 1.27,0.35 0.38,0.07 0.72,0.11 1.03,0.11 1.37,0 2.44,-0.23 3.21,-0.69 0.76,-0.46 1.3,-1 1.6,-1.62 0.16,-0.46 0.27,-0.88 0.35,-1.27 0.07,-0.38 0.11,-0.65 0.11,-0.8l0 -30.47c0,-0.31 0,-0.57 0,-0.8 0,-0.24 0,-0.51 0,-0.81 -0.3,-2.47 -1.07,-4.81 -2.29,-7.04 -1.23,-2.23 -2.52,-4.12 -3.9,-5.66l-18.34 -20.77c-0.62,-0.77 -1.23,-1.5 -1.84,-2.19 -0.61,-0.69 -1.22,-1.42 -1.83,-2.19 -1.53,-2 -2.75,-4.19 -3.67,-6.58 -0.92,-2.38 -1.38,-5.27 -1.38,-8.65l0 -32.08c0,-12.47 2.07,-19.77 6.19,-21.93 4.13,-2.15 8.79,-3.23 13.99,-3.23l13.76 0c0.15,0 0.34,0 0.57,0 0.23,0 0.5,0 0.81,0 5.04,0 9.74,1.19 14.1,3.58 4.35,2.38 6.53,9.57 6.53,21.58l0 26.54 -22.7 0 0 -30.93c0,-1.38 -0.38,-2.58 -1.15,-3.58 -0.76,-1 -1.52,-1.65 -2.29,-1.96 -0.3,-0.15 -0.57,-0.27 -0.8,-0.34 -0.23,-0.08 -0.5,-0.12 -0.8,-0.12 -1.38,0 -2.64,0.58 -3.79,1.73 -1.14,1.16 -1.72,2.58 -1.72,4.27l0 28.85c0,1.85 0.04,3.42 0.12,4.73 0.07,1.31 0.42,2.58 1.03,3.81 0.31,0.77 0.76,1.58 1.38,2.42 0.61,0.85 1.37,1.81 2.29,2.89l19.95 21.69c0.3,0.31 0.61,0.65 0.91,1.04 0.31,0.38 0.62,0.73 0.92,1.04 1.84,2 3.4,4.15 4.7,6.46 1.3,2.31 1.95,5.46 1.95,9.46l0 33.47c0,1.38 -0.04,2.96 -0.11,4.73 -0.08,1.77 -0.35,3.58 -0.81,5.42 -0.76,3.69 -2.67,7.08 -5.73,10.16 -3.06,3.07 -8.25,4.61 -15.59,4.61l-13.53 0c-7.03,0 -11.92,-1.5 -14.67,-4.5 -2.76,-3 -4.44,-6.35 -5.05,-10.04 -0.3,-1.54 -0.46,-3.08 -0.46,-4.61 0,-1.54 0,-3 0,-4.39 0,-0.15 0,-0.38 0,-0.69 0,-0.31 0,-0.54 0,-0.69l0 -31.62z"/>
  <path id="3" class="fil1" d="M764.12 166.6l22.7 0 0 37.39c0,1.07 0.31,1.92 0.92,2.54 0.61,0.61 1.3,1.07 2.06,1.38 0.46,0.15 0.88,0.27 1.26,0.35 0.38,0.07 0.73,0.11 1.03,0.11 1.38,0 2.45,-0.23 3.21,-0.69 0.77,-0.46 1.3,-1 1.61,-1.62 0.15,-0.46 0.27,-0.88 0.34,-1.27 0.08,-0.38 0.12,-0.65 0.12,-0.8l0 -30.47c0,-0.31 0,-0.57 0,-0.8 0,-0.24 0,-0.51 0,-0.81 -0.31,-2.47 -1.07,-4.81 -2.3,-7.04 -1.22,-2.23 -2.52,-4.12 -3.89,-5.66l-18.35 -20.77c-0.61,-0.77 -1.22,-1.5 -1.83,-2.19 -0.61,-0.69 -1.23,-1.42 -1.84,-2.19 -1.53,-2 -2.75,-4.19 -3.67,-6.58 -0.91,-2.38 -1.37,-5.27 -1.37,-8.65l0 -32.08c0,-12.47 2.06,-19.77 6.19,-21.93 4.13,-2.15 8.79,-3.23 13.99,-3.23l13.76 0c0.15,0 0.34,0 0.57,0 0.23,0 0.5,0 0.8,0 5.05,0 9.75,1.19 14.1,3.58 4.36,2.38 6.54,9.57 6.54,21.58l0 26.54 -22.7 0 0 -30.93c0,-1.38 -0.39,-2.58 -1.15,-3.58 -0.76,-1 -1.53,-1.65 -2.29,-1.96 -0.31,-0.15 -0.57,-0.27 -0.8,-0.34 -0.23,-0.08 -0.5,-0.12 -0.81,-0.12 -1.37,0 -2.63,0.58 -3.78,1.73 -1.15,1.16 -1.72,2.58 -1.72,4.27l0 28.85c0,1.85 0.04,3.42 0.11,4.73 0.08,1.31 0.42,2.58 1.04,3.81 0.3,0.77 0.76,1.58 1.37,2.42 0.61,0.85 1.38,1.81 2.29,2.89l19.95 21.69c0.31,0.31 0.62,0.65 0.92,1.04 0.31,0.38 0.61,0.73 0.92,1.04 1.83,2 3.4,4.15 4.7,6.46 1.3,2.31 1.95,5.46 1.95,9.46l0 33.47c0,1.38 -0.04,2.96 -0.12,4.73 -0.07,1.77 -0.34,3.58 -0.8,5.42 -0.76,3.69 -2.67,7.08 -5.73,10.16 -3.06,3.07 -8.26,4.61 -15.59,4.61l-13.53 0c-7.03,0 -11.93,-1.5 -14.68,-4.5 -2.75,-3 -4.43,-6.35 -5.04,-10.04 -0.31,-1.54 -0.46,-3.08 -0.46,-4.61 0,-1.54 0,-3 0,-4.39 0,-0.15 0,-0.38 0,-0.69 0,-0.31 0,-0.54 0,-0.69l0 -31.62z"/>
  <polygon id="4" class="fil1" points="863.07,223.14 863.07,61.59 885.77,61.59 885.77,223.14 "/>
  <path id="5" class="fil1" d="M926.02 223.14l16.97 -161.55 34.17 0 16.05 161.55 -22.47 0 -3.67 -44.31 -15.6 0 -3.44 44.31 -22.01 0zm26.37 -59.77l13.53 0 -5.96 -82.39 -1.15 0 -6.42 82.39z"/>
  <g id="_2451582765616">
   <rect class="fil3 str1" x="31.6" y="0.57" width="392.65" height="111.29"/>
   <rect class="fil4 str1" x="31.6" y="111.86" width="392.65" height="111.29"/>
   <rect class="fil5 str1" x="31.6" y="74.76" width="392.65" height="74.19"/>
  </g>
 </g>
</svg>
