<?xml version="1.0" encoding="UTF-8"?>
<!DOCTYPE svg PUBLIC "-//W3C//DTD SVG 1.1//EN" "http://www.w3.org/Graphics/SVG/1.1/DTD/svg11.dtd">
<!-- Creator: CorelDRAW 2019 (64-Bit) -->
<svg xmlns="http://www.w3.org/2000/svg" xml:space="preserve" width="1561px" height="341px" version="1.1" style="shape-rendering:geometricPrecision; text-rendering:geometricPrecision; image-rendering:optimizeQuality; fill-rule:evenodd; clip-rule:evenodd"
viewBox="0 0 1027.85 224.79"
 xmlns:xlink="http://www.w3.org/1999/xlink">
 <defs>
  <style type="text/css">
   <![CDATA[
    .str0 {stroke:#2B2A29;stroke-width:0.59;stroke-miterlimit:22.9256}
    .fil0 {fill:none}
    .fil2 {fill:none;fill-rule:nonzero}
    .fil3 {fill:#EE1C25}
    .fil4 {fill:yellow}
    .fil1 {fill:#2B2A29;fill-rule:nonzero}
   ]]>
  </style>
 </defs>
 <g id="Слой_x0020_1">
  <metadata id="CorelCorpID_0Corel-Layer"/>
  <rect class="fil0" y="1.98" width="1027.85" height="221.17"/>
  <path class="fil1" d="M502.99 168.24l22.62 0 0 32.55c0,9.23 -1.6,15.38 -4.8,18.46 -3.2,3.08 -6.7,4.85 -10.51,5.31 -0.91,0.15 -1.79,0.23 -2.62,0.23 -0.84,0 -1.64,0 -2.4,0l-15.53 0c-0.15,0 -0.31,0 -0.46,0 -0.15,0 -0.3,0 -0.46,0 -0.91,0 -1.82,0 -2.74,0 -0.91,0 -1.9,-0.08 -2.97,-0.23 -3.35,-0.46 -6.43,-2.23 -9.25,-5.31 -2.81,-3.08 -4.22,-9.31 -4.22,-18.69l0 -113.55c0,-0.16 0,-0.31 0,-0.46 0,-0.16 0,-0.31 0,-0.47 0,-1.07 0,-2.34 0,-3.8 0,-1.47 0.15,-2.89 0.46,-4.27 0.6,-3.7 2.24,-7.08 4.91,-10.16 2.66,-3.08 7.57,-4.61 14.73,-4.61l15.53 0c0.46,0 0.91,0 1.37,0 0.46,0 0.91,0 1.37,0 4.41,0.15 8.45,1.57 12.1,4.27 3.66,2.69 5.49,9.11 5.49,19.27l0 28.15 -22.62 0 0 -31.62c0,-1.07 -0.41,-2.03 -1.25,-2.88 -0.84,-0.85 -1.71,-1.5 -2.63,-1.96 -0.3,-0.16 -0.61,-0.27 -0.91,-0.35 -0.31,-0.07 -0.61,-0.11 -0.92,-0.11 -0.3,0 -0.57,0.04 -0.79,0.11 -0.23,0.08 -0.5,0.19 -0.8,0.35 -0.77,0.31 -1.53,0.92 -2.29,1.84 -0.76,0.93 -1.14,1.93 -1.14,3l0 121.63c0,1.23 0.38,2.27 1.14,3.12 0.76,0.84 1.52,1.42 2.29,1.73 0.3,0 0.57,0.03 0.8,0.11 0.22,0.08 0.49,0.12 0.79,0.12 0.31,0 0.61,-0.04 0.92,-0.12 0.3,-0.08 0.61,-0.19 0.91,-0.34 0.92,-0.31 1.79,-0.89 2.63,-1.73 0.84,-0.85 1.25,-1.81 1.25,-2.89l0 -36.7z"/>
  <polygon id="1" class="fil1" points="589.81,224.79 589.81,63.24 612.42,63.24 612.42,131.78 622.69,131.78 622.69,63.24 645.31,63.24 645.31,224.79 622.69,224.79 622.69,147.24 612.42,147.24 612.42,224.79 "/>
  <polygon id="2" class="fil1" points="712.25,224.79 712.25,63.24 734.86,63.24 734.86,224.79 "/>
  <polygon id="3" class="fil1" points="801.8,224.79 801.8,63.24 824.41,63.24 838.57,154.86 838.57,63.24 861.18,63.24 861.18,224.79 838.57,224.79 824.41,141.01 824.41,224.79 "/>
  <path id="4" class="fil1" d="M924.01 224.79l16.9 -161.55 34.03 0 15.99 161.55 -22.38 0 -3.66 -44.31 -15.53 0 -3.42 44.31 -21.93 0zm26.27 -59.78l13.47 0 -5.93 -82.39 -1.15 0 -6.39 82.39z"/>
  <polygon class="fil1" points="467.14,27.94 467.14,0.45 471.24,0.45 485.66,17.28 500.14,0.45 504.17,0.45 504.17,27.94 499.81,27.94 499.81,6.48 485.66,22.74 471.5,6.48 471.5,27.94 "/>
  <path id="1" class="fil1" d="M575.89 17.33l15.69 0 -7.88 -12.17 -7.81 12.17zm-11.5 10.61l17.47 -27.49 3.68 0 17.67 27.49 -4.82 0 -4.84 -7.39 -19.69 0 -4.72 7.39 -4.75 0z"/>
  <path id="2" class="fil1" d="M679.04 3.61l-10.85 0 0 21.17 10.85 0c4.39,0 7.85,-0.95 10.36,-2.85 2.53,-1.9 3.78,-4.47 3.78,-7.71 0,-3.19 -1.27,-5.75 -3.84,-7.69 -2.56,-1.95 -6,-2.92 -10.3,-2.92zm0 -3.16c5.61,0 10.13,1.27 13.56,3.83 3.43,2.56 5.15,5.89 5.15,9.99 0,4.13 -1.69,7.45 -5.06,9.94 -3.39,2.49 -7.93,3.73 -13.65,3.73l-15.28 0 0 -27.49 15.28 0z"/>
  <polygon id="3" class="fil1" points="760.68,27.94 760.68,0.45 788.71,0.45 788.71,3.61 765.11,3.61 765.11,11.67 779.39,11.67 779.39,14.83 765.11,14.83 765.11,24.78 790.17,24.78 790.17,27.94 "/>
  <polygon id="4" class="fil1" points="896.02,27.94 896.02,0.3 900.51,0.3 900.51,27.94 "/>
  <polygon id="5" class="fil1" points="966.36,27.94 966.36,0.45 968.69,0.45 991.82,21 991.82,0.45 996.25,0.45 996.25,27.94 993.99,27.94 970.79,7.39 970.79,27.94 "/>
  <polygon id="6" class="fil2 str0" points="467.14,27.94 467.14,0.45 471.24,0.45 485.66,17.28 500.14,0.45 504.17,0.45 504.17,27.94 499.81,27.94 499.81,6.48 485.66,22.74 471.5,6.48 471.5,27.94 "/>
  <path id="7" class="fil2 str0" d="M575.89 17.33l15.69 0 -7.88 -12.17 -7.81 12.17zm-11.5 10.61l17.47 -27.49 3.68 0 17.67 27.49 -4.82 0 -4.84 -7.39 -19.69 0 -4.72 7.39 -4.75 0z"/>
  <path id="8" class="fil2 str0" d="M679.04 3.61l-10.85 0 0 21.17 10.85 0c4.39,0 7.85,-0.95 10.36,-2.85 2.53,-1.9 3.78,-4.47 3.78,-7.71 0,-3.19 -1.27,-5.75 -3.84,-7.69 -2.56,-1.95 -6,-2.92 -10.3,-2.92zm0 -3.16c5.61,0 10.13,1.27 13.56,3.83 3.43,2.56 5.15,5.89 5.15,9.99 0,4.13 -1.69,7.45 -5.06,9.94 -3.39,2.49 -7.93,3.73 -13.65,3.73l-15.28 0 0 -27.49 15.28 0z"/>
  <polygon id="9" class="fil2 str0" points="760.68,27.94 760.68,0.45 788.71,0.45 788.71,3.61 765.11,3.61 765.11,11.67 779.39,11.67 779.39,14.83 765.11,14.83 765.11,24.78 790.17,24.78 790.17,27.94 "/>
  <polygon id="10" class="fil2 str0" points="896.02,27.94 896.02,0.3 900.51,0.3 900.51,27.94 "/>
  <polygon id="11" class="fil2 str0" points="966.36,27.94 966.36,0.45 968.69,0.45 991.82,21 991.82,0.45 996.25,0.45 996.25,27.94 993.99,27.94 970.79,7.39 970.79,27.94 "/>
 </g>
 <g id="Слой_x0020_1_0">
  <metadata id="CorelCorpID_1Corel-Layer"/>
  <g id="_2451264564432">
   <rect class="fil3" x="34.05" y="1.94" width="390.21" height="222.85"/>
   <g>
    <polygon class="fil4" points="89.76,24.23 109.41,84.7 57.97,47.32 121.55,47.32 70.11,84.7 "/>
   </g>
   <g>
    <polygon class="fil4" points="149.83,13.97 147.97,35.09 137.07,16.91 156.57,25.2 135.91,29.96 "/>
   </g>
   <g>
    <polygon class="fil4" points="175.75,38.75 165.84,57.49 162.85,36.51 177.6,51.72 156.72,48.09 "/>
   </g>
   <g>
    <polygon class="fil4" points="178.22,76.12 161.53,89.18 167.35,68.8 174.62,88.71 157.04,76.88 "/>
   </g>
   <g>
    <polygon class="fil4" points="149.4,91.8 148.42,112.97 136.77,95.26 156.6,102.74 136.16,108.35 "/>
   </g>
  </g>
 </g>
</svg>
